<svg width="91" height="22" fill="none" xmlns="http://www.w3.org/2000/svg"><g clip-path="url(#clip0)"><path fill-rule="evenodd" clip-rule="evenodd" d="M16.958 4.125h-4.125v8.25h4.125c2.246 0 4.067-1.847 4.067-4.125s-1.82-4.125-4.067-4.125zm-.229 12.372v.003h-3.896V22H8.708V0h8.021v.003a8.25 8.25 0 1 1 0 16.494zm20.854 4.4a8.25 8.25 0 1 1 0-14.293V5.5h4.125V22h-4.125v-1.104zm-4.125-3.022a4.125 4.125 0 1 0 0-8.25 4.125 4.125 0 0 0 0 8.25zM55 20.896a8.25 8.25 0 1 1 0-14.293V0h4.125v22H55v-1.104zm-4.125-3.021a4.125 4.125 0 1 0 0-8.25 4.125 4.125 0 0 0 0 8.25zM60.729 0h4.125v22H60.73V0zM78.38 13.736l4.04 1.401c-.42 2.445-1.928 4.692-4.245 5.872-4.24 2.16-9.207.546-11.184-3.334-2.16-4.24-.546-9.207 3.693-11.367 3.88-1.977 8.848-.363 11.008 3.876.217.425.39.863.522 1.308l-4.173 2.127-6.447 3.285c1.238 1.031 3.05 1.275 4.704.432 1.309-.667 2.096-2.1 2.082-3.6zm-8.243.31l6.775-3.452c-1.222-1.04-2.968-1.318-4.36-.609-1.654.843-2.521 2.452-2.415 4.06zM2.75 19.02a2.75 2.75 0 1 1 0-5.5 2.75 2.75 0 0 1 0 5.5zm0-10.313a2.75 2.75 0 1 1 0-5.5 2.75 2.75 0 0 1 0 5.5zm85.02-1.833h3.208V11h-3.209v11h-4.123V0h4.123v6.875z" fill="#000"/></g><defs><clipPath id="clip0"><path fill="#fff" d="M0 0h90.979v22H0z"/></clipPath></defs></svg>